<svg xmlns="http://www.w3.org/2000/svg" viewBox="0 0 400 100" class="iconAbove">
  <g id="21185037-7134-4641-9ada-d8dc39b13860" fill="#000000" transform="matrix(5.263158070853988,0,0,5.263158070853988,100,-20)">
    <path d="M7.97 14.64Q7.76 15.27 7.13 15.91Q6.51 16.55 5.57 16.96Q4.62 17.37 3.50 17.37L3.50 17.37Q1.79 17.37 0.99 16.54Q0.20 15.71 0.20 14.41L0.20 14.41Q0.20 12.56 1.02 11.05Q1.85 9.55 3.25 8.69Q4.65 7.83 6.27 7.83L6.27 7.83Q6.92 7.83 7.45 8.12Q7.98 8.41 8.29 8.97Q8.60 9.52 8.60 10.26L8.60 10.26Q8.60 10.68 8.28 10.98Q7.97 11.27 7.43 11.27L7.43 11.27Q7.01 11.27 6.87 11.05Q6.72 10.82 6.72 10.47L6.72 10.47L6.73 10.02Q6.73 9.77 6.45 9.53Q6.17 9.30 5.94 9.30L5.94 9.30Q5.15 9.30 4.21 10.00Q3.28 10.71 2.63 11.91Q1.99 13.10 1.99 14.50L1.99 14.50Q1.99 15.15 2.49 15.55Q3.00 15.96 3.77 15.96L3.77 15.96Q4.02 15.96 4.42 15.79Q4.83 15.62 5.17 15.37Q5.52 15.12 5.63 14.88L5.63 14.88Q5.80 14.53 6.10 14.10Q6.41 13.66 6.72 13.66L6.72 13.66Q7.43 13.66 7.69 13.97Q7.95 14.28 7.97 14.64L7.97 14.64ZM11.70 17.37Q10.47 17.37 9.79 16.53Q9.10 15.69 9.10 14.39L9.10 14.39Q9.10 13.30 9.63 12.33Q10.15 11.37 11.06 10.78Q11.97 10.19 13.06 10.19L13.06 10.19Q14.14 10.19 14.83 10.90Q15.53 11.61 15.53 12.98L15.53 12.98Q15.53 13.94 14.99 14.98Q14.46 16.02 13.57 16.70Q12.68 17.37 11.70 17.37L11.70 17.37ZM11.91 16.25Q12.36 16.25 12.82 15.69Q13.27 15.13 13.57 14.28Q13.86 13.43 13.86 12.61L13.86 12.61Q13.86 11.37 12.82 11.37L12.82 11.37Q12.25 11.37 11.77 11.91Q11.30 12.46 11.02 13.27Q10.74 14.07 10.74 14.77L10.74 14.77Q10.74 15.18 10.92 15.52Q11.10 15.86 11.38 16.06Q11.65 16.25 11.91 16.25L11.91 16.25ZM22.32 6.71Q22.37 6.50 22.64 6.36Q22.92 6.23 23.23 6.23L23.23 6.23Q23.48 6.23 23.77 6.34Q24.07 6.45 24.07 6.66L24.07 6.66L23.18 10.11Q22.02 14.63 21.83 15.62L21.83 15.62Q21.74 16.04 21.74 16.27L21.74 16.27Q21.74 16.65 21.83 17.01L21.83 17.01Q21.80 17.09 21.61 17.18Q21.42 17.26 21.27 17.26L21.27 17.26Q20.99 17.26 20.65 17.19Q20.31 17.12 20.23 17.04L20.23 17.04Q20.10 16.93 20.10 16.59L20.10 16.59Q20.10 16.34 20.16 16.11L20.16 16.11Q19.87 16.53 19.27 16.81Q18.68 17.08 18.31 17.08L18.31 17.08Q16.17 17.08 16.17 14.77L16.17 14.77Q16.17 13.76 16.63 12.75Q17.08 11.75 17.93 11.09Q18.77 10.43 19.89 10.43L19.89 10.43Q20.20 10.43 20.58 10.68Q20.96 10.92 21.20 11.23L21.20 11.23Q21.50 9.93 21.74 9.06L21.74 9.06Q21.85 8.60 22.00 8.00Q22.15 7.41 22.32 6.71L22.32 6.71ZM20.89 12.53Q20.80 12.22 20.49 11.96Q20.17 11.70 19.98 11.70L19.98 11.70Q19.33 11.70 18.77 12.12Q18.21 12.54 17.89 13.22Q17.56 13.89 17.56 14.60L17.56 14.60Q17.56 15.13 17.75 15.55Q17.95 15.97 18.35 15.97L18.35 15.97Q18.70 15.97 19.17 15.74Q19.64 15.51 20.01 15.14Q20.37 14.77 20.45 14.38L20.45 14.38L20.89 12.53ZM26.05 17.37Q24.68 17.37 24.05 16.83Q23.42 16.28 23.42 15.37L23.42 15.37Q23.42 14.04 24.09 12.91Q24.75 11.77 25.86 11.11Q26.98 10.44 28.27 10.44L28.27 10.44Q29.05 10.44 29.58 10.89Q30.11 11.33 30.11 12.18L30.11 12.18Q30.11 12.67 29.80 12.99Q29.48 13.30 28.90 13.55Q28.31 13.79 26.99 14.24L26.99 14.24Q25.80 14.63 25.06 14.90L25.06 14.90Q25.00 15.11 25.00 15.33L25.00 15.33Q25.00 15.72 25.33 15.93Q25.66 16.14 26.26 16.14L26.26 16.14Q26.64 16.14 27.13 15.99Q27.62 15.83 27.75 15.60L27.75 15.60Q28.22 14.73 28.62 14.73L28.62 14.73Q29.19 14.73 29.39 14.95Q29.60 15.16 29.61 15.43L29.61 15.43Q29.44 15.88 28.95 16.33Q28.46 16.79 27.71 17.08Q26.95 17.37 26.05 17.37L26.05 17.37ZM25.45 13.61Q26.84 13.16 27.73 12.78Q28.63 12.39 28.63 12.01L28.63 12.01Q28.63 11.84 28.45 11.74Q28.27 11.63 28.06 11.63L28.06 11.63Q27.64 11.63 27.10 11.96Q26.56 12.28 26.10 12.74Q25.63 13.20 25.45 13.61L25.45 13.61ZM36.71 15.36Q36.97 15.55 37.06 15.74Q37.14 15.93 37.14 16.18L37.14 16.18Q37.14 16.58 36.58 16.84L36.58 16.84Q35.53 16.98 33.64 17.12Q31.75 17.25 30.94 17.26L30.94 17.26Q30.44 17.00 30.44 16.59L30.44 16.59Q30.44 16.42 30.60 16.21L30.60 16.21L33.53 12.60L36.22 9.28Q33.22 9.37 32.54 9.81L32.54 9.81Q32.34 9.66 32.22 9.37Q32.10 9.09 32.10 8.85L32.10 8.85Q32.10 8.46 32.63 8.20L32.63 8.20Q33.68 8.06 35.57 7.93Q37.46 7.80 38.28 7.78L38.28 7.78Q38.78 8.05 38.78 8.46L38.78 8.46Q38.78 8.62 38.61 8.83L38.61 8.83L33.07 15.69Q35.53 15.54 36.71 15.36L36.71 15.36ZM32.45 16.46L32.45 16.46ZM41.57 17.37Q40.19 17.37 39.56 16.83Q38.93 16.28 38.93 15.37L38.93 15.37Q38.93 14.04 39.60 12.91Q40.26 11.77 41.38 11.11Q42.49 10.44 43.78 10.44L43.78 10.44Q44.56 10.44 45.09 10.89Q45.63 11.33 45.63 12.18L45.63 12.18Q45.63 12.67 45.31 12.99Q45.00 13.30 44.41 13.55Q43.82 13.79 42.50 14.24L42.50 14.24Q41.31 14.63 40.57 14.90L40.57 14.90Q40.52 15.11 40.52 15.33L40.52 15.33Q40.52 15.72 40.84 15.93Q41.17 16.14 41.78 16.14L41.78 16.14Q42.15 16.14 42.64 15.99Q43.13 15.83 43.26 15.60L43.26 15.60Q43.74 14.73 44.13 14.73L44.13 14.73Q44.70 14.73 44.91 14.95Q45.11 15.16 45.12 15.43L45.12 15.43Q44.95 15.88 44.46 16.33Q43.97 16.79 43.22 17.08Q42.46 17.37 41.57 17.37L41.57 17.37ZM40.96 13.61Q42.35 13.16 43.25 12.78Q44.14 12.39 44.14 12.01L44.14 12.01Q44.14 11.84 43.96 11.74Q43.78 11.63 43.57 11.63L43.57 11.63Q43.15 11.63 42.61 11.96Q42.07 12.28 41.61 12.74Q41.15 13.20 40.96 13.61L40.96 13.61ZM47.10 10.68Q47.05 10.64 47.05 10.58L47.05 10.58Q47.05 10.44 47.36 10.35Q47.67 10.26 48.22 10.26L48.22 10.26Q48.72 10.26 48.96 10.52Q49.20 10.78 49.24 11.14L49.24 11.14L48.99 12.05Q49.28 11.65 49.81 11.28Q50.34 10.91 50.89 10.68Q51.44 10.46 51.79 10.46L51.79 10.46Q52.53 10.46 52.86 10.73Q53.20 11.00 53.20 11.59L53.20 11.59Q52.37 13.75 52.11 16.24L52.11 16.24L52.30 16.93Q52.14 17.25 51.83 17.44Q51.53 17.63 50.96 17.63L50.96 17.63Q50.62 17.63 50.47 17.40Q50.32 17.18 50.32 16.84L50.32 16.84Q50.32 15.90 50.59 14.78Q50.86 13.65 51.23 12.47L51.23 12.47Q51.37 12.03 51.37 12.01L51.37 12.01Q51.37 11.82 51.14 11.82L51.14 11.82Q50.83 11.82 50.21 12.25Q49.59 12.68 48.93 13.71Q48.27 14.74 47.87 16.41L47.87 16.41Q47.84 16.49 47.80 16.72Q47.75 16.94 47.57 17.03Q47.39 17.12 46.98 17.12L46.98 17.12Q46.52 17.12 46.30 17.02Q46.09 16.93 46.09 16.60L46.09 16.60Q46.13 16.41 46.21 16.13L46.21 16.13Q47.03 12.87 47.46 11.10L47.46 11.10L47.10 10.68ZM55.37 8.76Q55.37 8.33 55.64 7.99Q55.92 7.66 56.41 7.66L56.41 7.66Q56.92 7.66 57.31 7.98Q57.69 8.30 57.69 8.71L57.69 8.71Q57.69 9.11 57.30 9.41Q56.91 9.70 56.39 9.70L56.39 9.70Q55.89 9.70 55.63 9.44Q55.37 9.18 55.37 8.76L55.37 8.76ZM56.84 11.24Q56.10 14.27 55.71 15.79L55.71 15.79Q55.65 16.02 55.65 16.28L55.65 16.28L55.66 16.67Q55.66 16.91 55.52 17.01Q55.37 17.11 54.89 17.12L54.89 17.12Q54.43 17.12 54.19 17.02Q53.96 16.93 53.96 16.60L53.96 16.60Q53.96 16.45 54.31 14.97Q54.67 13.48 55.29 11.10L55.29 11.10L54.96 10.68Q54.92 10.64 54.92 10.58L54.92 10.58Q54.92 10.44 55.23 10.35Q55.54 10.26 56.08 10.26L56.08 10.26Q56.56 10.26 56.69 10.54Q56.83 10.81 56.84 11.24L56.84 11.24Z"></path>
  </g>
  <defs>
    <linearGradient gradientTransform="rotate(25)" id="e686e87a-70b9-4eeb-91e6-7c5a4498cccd" x1="0%" y1="0%" x2="100%" y2="0%">
      <stop offset="0%" style="stop-color: rgb(141, 44, 227); stop-opacity: 1;"></stop>
      <stop offset="100%" style="stop-color: rgb(247, 198, 246); stop-opacity: 1;"></stop>
    </linearGradient>
  </defs>
  <g id="08f9eca9-9114-4a3c-bcb0-6590c985de4a" transform="matrix(1,0,0,1,0,0)" stroke="none" fill="url(#e686e87a-70b9-4eeb-91e6-7c5a4498cccd)">
    <path d="M21.813 45.358c1.367.651 3.254-.055 2.224-1.242-1.031-1.192-4.806-2.52-4.267-5.632 1.521-8.726 22.665-34.918 24.457-35.792.793-.565 1.611-.21 1.113 1.197-.503 1.412-8.959 15.728-9.818 16.3 0 0 6.636-8.171 9.535-14.696.357-.904 1.36-.078.97 1.316-.398 1.389-5.026 11.175-9.166 16.193 0 0 2.97-3.356 5.585-7.072.311-.666 1.764-1.199 1 .646-.766 1.841-3.159 6.184-4.006 7.022 0 0 2.608-3.032 2.974-2.884.354.149.898.027-.124 1.53l-4.454 6.554s3.513-3.959 3.635-3.453c.11.51-1.377 4.531-4.458 7.034 0 0 3.493-2.845 3.357-1.973-.128.864-3 3.982-3.568 4.922-6.218 10.251 5.898 15.774 9.936 16.742 10.258 1.679 33.514-1.703 43.767-8.136 0 0 .976-.257.371.671-2.043 3.139-19.516 9.164-21.53 9.835-4.829 1.615-12.613 7.146 1.212 11.56 5.415 1.729 20.635 4.521 22.025 4.906 0 0 .944.699-.093.979-1.854.494-30.538-1-44.674-8.675-5.031-2.942-12.233 8.738-9.57 14.233.581 1.199 2.963 3.743 1.849 3.634-1.112-.12-3.391-3.938-4.548-3.994 0 0 6.7 6.779 6.131 7.62-.441.643-1.598-.692-1.921-.901 0 0 3.465 4.854 3.089 5.132-.58.43-2.708-2.244-2.708-2.244s4.193 5.463 3.367 6.011c-.472.307-6.361-8.296-7.9-8.599 0 0 9.986 13.025 8.777 13.455-1.207.433-14.102-15.453-16.745-19.107-2.887-4.003-9.843-11.078-6.984-18.935 0 0-9.677-4.897-11.667-11.912-.328-.601-2.077-.739-1.956-1.181.117-.447 1.154-.479 2.222-.296.544.105 1.437-1.094 2.4-1.6 3.068-1.609 8.091-.156 10.161.832z"></path>
  </g>
</svg>